<svg width="49" height="53" viewBox="0 0 49 53" fill="none" xmlns="http://www.w3.org/2000/svg">
<path d="M24.1143 4.75591V4.74546H11.9524C9.44261 4.74546 6.93487 4.73501 4.42505 4.73292C3.98604 4.73292 3.98604 4.73292 3.97568 5.17804V5.3285C3.97568 15.3216 3.97568 25.3148 3.97568 35.3079C3.96319 35.6241 4.07141 35.933 4.27802 36.171C5.9801 38.2118 7.91444 40.0432 10.0411 41.6273C14.1993 44.7201 18.8441 46.7869 23.7809 48.2267C23.9836 48.2873 24.1994 48.2873 24.4021 48.2267C28.0343 47.1547 31.5299 45.7566 34.81 43.8382C38.2697 41.843 41.3483 39.2401 43.9009 36.1522C44.0862 35.9616 44.1921 35.7066 44.197 35.4396C44.1887 30.9968 44.1887 26.554 44.197 22.1112C44.197 21.6556 44.197 21.6494 43.7207 21.6494H24.5781C24.1205 21.6494 24.1164 21.6494 24.1143 22.1258C24.1143 23.4173 24.1143 24.7081 24.1143 25.9981C24.1143 26.6836 24.1143 26.5916 24.7127 26.5937H38.6182C38.7673 26.5937 38.9164 26.5937 39.0676 26.5937C39.2188 26.5937 39.314 26.6668 39.3099 26.8361C39.3099 26.9364 39.3099 27.0451 39.3099 27.1391C39.3099 29.2686 39.3099 31.3959 39.3099 33.5254C39.3149 33.6738 39.2884 33.8215 39.2324 33.9588C39.1763 34.0961 39.0919 34.2198 38.9848 34.3216C37.9849 35.3746 36.91 36.3524 35.7688 37.2472C32.3354 39.9283 28.4733 41.7527 24.3628 43.0859C24.139 43.1498 23.9005 43.1358 23.6856 43.0462C21.9135 42.4765 20.1801 41.791 18.4962 40.9941C15.0089 39.3223 11.8696 37.172 9.19412 34.3466C9.07655 34.2321 8.98438 34.0938 8.9237 33.9407C8.86302 33.7876 8.8352 33.6232 8.84208 33.4585C8.85036 25.7306 8.85036 17.9986 8.84208 10.2624C8.84208 9.59157 8.8193 9.63546 9.46332 9.63546L19.5813 9.65008L38.6721 9.66262C38.788 9.66262 38.904 9.66262 39.02 9.66262C39.2105 9.66262 39.2933 9.74621 39.285 9.93638C39.285 10.0701 39.285 10.2039 39.285 10.3376C39.285 12.3159 39.285 14.2942 39.285 16.2725C39.285 16.7155 39.285 16.7218 39.7178 16.7218C41.0473 16.7218 42.376 16.7218 43.7041 16.7218C44.1618 16.7218 44.1659 16.7218 44.168 16.2474V5.25118C44.168 4.76009 44.168 4.76009 43.6751 4.75591C43.5757 4.75591 43.4681 4.75591 43.3749 4.75591H24.1143ZM24.1143 0.0268271H47.7836C48.1584 0.0393655 48.1584 0.0393655 48.1688 0.430147C48.1688 0.530455 48.1688 0.639121 48.1688 0.733159C48.1688 13.1211 48.1688 25.5084 48.1688 37.895C48.1768 38.0919 48.1441 38.2884 48.0728 38.4719C48.0015 38.6553 47.8931 38.8218 47.7546 38.9608C44.0272 42.9313 39.7033 46.0931 34.9156 48.6112C31.561 50.35 28.0634 51.7924 24.4622 52.9223C24.2472 53.0094 24.0095 53.0212 23.7871 52.9558C17.964 51.075 12.4411 48.5673 7.41529 45.0148C4.85508 43.2134 2.48287 41.1542 0.335202 38.8688C0.225539 38.7601 0.139176 38.6298 0.0814691 38.486C0.0237621 38.3422 -0.00405902 38.188 -0.000269211 38.0329C-0.000269211 25.5642 -0.000269211 13.0954 -0.000269211 0.626583V0.551352C-0.000269211 -0.0421343 -0.000269192 -0.000339545 0.548495 -0.000339545H24.1184L24.1143 0.0268271Z" fill="url(#paint0_linear)"/>
<defs>
<linearGradient id="paint0_linear" x1="-0.000269211" y1="26.4997" x2="48.1812" y2="26.4997" gradientUnits="userSpaceOnUse">
<stop stop-color="#0084AC"/>
<stop offset="1" stop-color="#13110C"/>
</linearGradient>
</defs>
</svg>
